Jump_normalized_Motion_pl04
version=1
nRows=16
nColumns=43
inDegrees=yes
endheader
time		pelvis_tilt		pelvis_list		pelvis_rotation		pelvis_tx		pelvis_ty		pelvis_tz		hip_flexion_r		hip_adduction_r		hip_rotation_r		knee_angle_r		ankle_angle_r		subtalar_angle_r		mtp_angle_r		hip_flexion_l		hip_adduction_l		hip_rotation_l		knee_angle_l		ankle_angle_l		subtalar_angle_l		mtp_angle_l		lumbar_extension		lumbar_bending		lumbar_rotation		neck_flexion		neck_lateral_bending		neck_rotation		arm_flex_r		arm_add_r		arm_rot_r		elbow_flex_r		pro_sup_r		wrist_flex_r		wrist_dev_r		hand_finger_flex_r		arm_flex_l		arm_add_l		arm_rot_l		elbow_flex_l		pro_sup_l		wrist_flex_l		wrist_dev_l		hand_finger_flex_l		
0.304167		3.304916		-20.430552		89.335389		0.051286		1.770721		1.828271		82.722600		6.466106		-2.244080		-132.672958		28.209840		-3.662146		-5.585926		84.896006		-8.817565		2.630872		-136.521371		20.497057		-6.201705		22.623343		-50.423704		-0.669730		2.431503		41.942651		-0.251678		1.257550		70.548505		-20.773404		5.659812		84.687788		130.158698		-7.689120		-3.830658		-17.322186		66.434807		-28.327849		8.397640		86.261863		116.170097		-15.370938		1.342046		21.071796		
0.307475		3.185639		-20.557141		89.359229		0.051388		1.772837		1.824855		82.289427		6.432681		-2.015462		-132.381049		28.187756		-3.664036		-5.444617		84.373796		-8.814778		2.472240		-136.177595		20.459513		-6.055823		22.878941		-50.127538		-0.757824		2.301262		41.685707		-0.181911		1.197251		71.392945		-21.048588		6.026069		84.950186		130.219959		-7.746104		-3.718815		-17.339262		67.738903		-28.538736		9.208685		86.441925		116.372646		-15.121973		1.400574		20.796497		
0.310783		3.115735		-20.838039		89.376001		0.051459		1.774816		1.821571		82.027403		6.437494		-1.814362		-132.037442		28.205784		-3.661362		-5.393097		84.041850		-8.811855		2.364907		-135.820421		20.432832		-5.943260		23.036787		-49.651897		-0.793583		2.221310		41.580552		-0.153495		1.159740		72.293159		-21.173219		6.358256		85.034058		130.284837		-7.739989		-3.627112		-17.342653		68.906780		-28.512119		9.708297		86.529236		116.492915		-14.954244		1.444679		20.612209		
0.314091		2.943956		-21.026377		89.355583		0.051448		1.776845		1.818088		81.634906		6.390855		-1.526325		-131.760158		28.205917		-3.590748		-5.326179		83.554434		-8.789072		2.149589		-135.454280		20.412927		-5.773620		23.338572		-49.273774		-0.924211		2.084047		41.342624		-0.113071		1.085763		73.135306		-21.520691		6.761162		85.274767		130.356107		-7.827777		-3.428912		-17.384417		70.205264		-28.617164		10.498853		86.630617		116.665023		-14.705342		1.555924		20.259135		
0.317399		2.800687		-21.288618		89.332949		0.051459		1.778830		1.814634		81.322683		6.357177		-1.270431		-131.446538		28.217298		-3.473120		-5.281829		83.153529		-8.761507		1.968878		-135.082666		20.395300		-5.634592		23.600269		-48.805463		-1.023602		1.973079		41.159939		-0.108589		1.045226		74.000274		-21.742495		7.120278		85.413815		130.414047		-7.824296		-3.280532		-17.389469		71.423978		-28.616344		11.126811		86.683001		116.799998		-14.491792		1.656714		19.974269		
0.320707		2.674438		-21.563845		89.302149		0.051476		1.780871		1.811084		80.993971		6.340627		-1.040572		-131.103051		28.236540		-3.322885		-5.237721		82.752167		-8.738901		1.811729		-134.692571		20.390339		-5.517286		23.807859		-48.316608		-1.112609		1.869971		41.041858		-0.100681		1.007421		74.835925		-21.827200		7.359021		85.493319		130.444077		-7.783483		-3.154207		-17.381597		72.556273		-28.498637		11.598350		86.701438		116.909268		-14.350439		1.763929		19.790945		
0.324015		2.430578		-21.741809		89.225415		0.051526		1.783062		1.807362		80.551114		6.284586		-0.692564		-130.787580		28.274760		-3.057705		-5.149181		82.176192		-8.713214		1.523905		-134.279638		20.390750		-5.372158		24.171056		-47.936507		-1.315147		1.726643		40.856456		-0.078393		0.934618		75.656074		-22.101102		7.688712		85.673403		130.460802		-7.736476		-2.958019		-17.372496		73.828628		-28.468364		12.317750		86.713119		117.058704		-14.152832		1.953573		19.503009		
0.327323		2.373456		-22.064287		89.211316		0.051503		1.784971		1.803691		80.257084		6.274524		-0.555223		-130.428018		28.254547		-2.950543		-5.113354		81.841741		-8.715443		1.429821		-133.908769		20.341537		-5.300297		24.278501		-47.374833		-1.320669		1.658897		40.663077		-0.186239		0.993906		76.527601		-22.258541		8.080591		85.720232		130.519288		-7.553844		-2.985068		-17.303073		74.884051		-28.440522		12.789568		86.752818		117.162768		-13.944648		1.981695		19.494074		
0.330631		2.305072		-22.326591		89.196286		0.051488		1.787065		1.799843		79.867621		6.251097		-0.411971		-130.046077		28.245973		-2.819917		-5.068568		81.407167		-8.710455		1.319870		-133.507328		20.282129		-5.207335		24.378799		-46.884129		-1.346674		1.584696		40.453005		-0.244474		1.018710		77.340370		-22.394464		8.401470		85.818097		130.555187		-7.418425		-2.967972		-17.252132		75.931118		-28.394606		13.255956		86.804669		117.253490		-13.747132		2.024823		19.513091		
0.333939		2.259733		-22.590929		89.186247		0.051450		1.789154		1.795923		79.472425		6.230054		-0.299326		-129.655953		28.244443		-2.731302		-5.035983		80.974412		-8.708698		1.228269		-133.108766		20.190161		-5.106087		24.432459		-46.384327		-1.354419		1.521921		40.251697		-0.295845		1.046522		78.146239		-22.515223		8.729637		85.897097		130.598625		-7.285474		-2.950095		-17.202172		76.936762		-28.327780		13.676182		86.850399		117.320621		-13.552212		2.042145		19.567225		
0.337247		2.126939		-22.682825		89.141089		0.051307		1.791564		1.791938		78.880493		6.161857		-0.081269		-129.260291		28.277588		-2.585334		-4.963278		80.321292		-8.659763		1.042507		-132.692393		20.053015		-4.939044		24.542021		-46.083968		-1.438140		1.452110		40.002150		-0.321619		1.043126		79.078595		-22.829833		9.227330		85.970438		130.642554		-7.111489		-2.817796		-17.138594		78.204269		-28.364297		14.439526		86.769163		117.392984		-13.207879		2.101153		19.688124		
0.340556		1.909005		-22.643548		89.059579		0.051338		1.794364		1.787489		78.085677		6.089205		0.206493		-128.860899		28.329322		-2.417120		-4.830771		79.403958		-8.650011		0.737247		-132.194376		19.955526		-4.792658		24.738720		-45.946157		-1.648118		1.327855		39.828715		-0.234457		0.931760		79.826643		-23.095675		9.538622		86.201600		130.575447		-7.100314		-2.485175		-17.140269		79.389406		-28.293655		15.075744		86.762177		117.270060		-12.992221		2.140252		19.834463		
0.343864		1.857130		-22.932818		89.036159		0.051281		1.796430		1.783444		77.697933		6.057528		0.307397		-128.444706		28.353065		-2.406875		-4.792437		78.987109		-8.632133		0.640151		-131.772290		19.802919		-4.663149		24.780420		-45.397057		-1.672738		1.273787		39.621249		-0.270288		0.942162		80.645286		-23.203059		9.904460		86.172458		130.626016		-6.925033		-2.443324		-17.079637		80.335562		-28.180491		15.454294		86.734516		117.262642		-12.825653		2.106920		19.922809		
0.347172		1.783605		-23.144133		89.010774		0.051157		1.798628		1.779272		77.206514		5.995660		0.426305		-128.019644		28.379934		-2.391897		-4.752213		78.473612		-8.597627		0.519710		-131.347214		19.659026		-4.493758		24.828501		-44.936157		-1.709270		1.220227		39.337920		-0.291423		0.926814		81.466132		-23.370772		10.289636		86.186071		130.684024		-6.713808		-2.388540		-17.012486		81.349662		-28.128619		15.948597		86.695388		117.241604		-12.600342		2.051917		20.048611		
0.350480		1.704747		-23.347628		88.982408		0.051096		1.800891		1.774897		76.664935		5.928519		0.526437		-127.568271		28.408837		-2.375241		-4.717540		77.920840		-8.578433		0.407246		-130.884416		19.559316		-4.325631		24.874549		-44.471509		-1.767348		1.154106		39.048667		-0.297349		0.898342		82.203421		-23.525639		10.614736		86.216138		130.726823		-6.477319		-2.360792		-16.943475		82.289698		-28.059531		16.405641		86.694581		117.204010		-12.401147		1.993425		20.172168		
0.353788		1.657043		-23.618955		88.956360		0.051049		1.803018		1.770494		76.201023		5.871245		0.588252		-127.100001		28.439233		-2.371063		-4.698034		77.445156		-8.570396		0.331966		-130.433593		19.481318		-4.192151		24.898351		-43.915123		-1.800635		1.106579		38.778264		-0.313359		0.892662		82.898789		-23.597555		10.880424		86.182227		130.753875		-6.237447		-2.380863		-16.868986		83.130189		-27.946601		16.747795		86.702544		117.203269		-12.246632		1.965745		20.255246		
